<svg xmlns="http://www.w3.org/2000/svg" xmlns:xlink="http://www.w3.org/1999/xlink" viewBox="0 0 500 500"><defs><style>.cls-1{fill:none;}.cls-2{fill:#989696;}.cls-3{fill:#ea7100;}.cls-4{fill:#ea7100;}.cls-5{fill:#ea7100;}.cls-6{fill:#ea7100;}.cls-7{fill:#ea7100;}</style><linearGradient id="Gradiente_sem_nome_13" x1="100.08" y1="240.68" x2="399.82" y2="240.68" gradientUnits="userSpaceOnUse"><stop offset="0" stop-color="#f80"/><stop offset="1" stop-color="#ff4f00"/></linearGradient><linearGradient id="Gradiente_sem_nome_13-2" x1="100.08" y1="254.72" x2="399.82" y2="254.72" xlink:href="#Gradiente_sem_nome_13"/><linearGradient id="Gradiente_sem_nome_13-3" x1="100.08" y1="253.92" x2="399.82" y2="253.92" xlink:href="#Gradiente_sem_nome_13"/><linearGradient id="Gradiente_sem_nome_13-4" x1="100.08" y1="254.77" x2="399.82" y2="254.77" xlink:href="#Gradiente_sem_nome_13"/><linearGradient id="Gradiente_sem_nome_13-5" x1="100.08" y1="253.95" x2="399.82" y2="253.95" xlink:href="#Gradiente_sem_nome_13"/></defs><g id="Camada_2" data-name="Camada 2"><g id="fundo"><rect class="cls-1" width="500" height="500" rx="250"/></g><g id="logos"><path class="cls-2" d="M100,192.35h5.35a4.62,4.62,0,0,1,3.29,1.11,2.81,2.81,0,0,1,.81,2v0a3,3,0,0,1-2,2.91c1.49.45,2.69,1.31,2.69,3v0c0,2.15-1.81,3.43-4.56,3.43H100Zm5.12,5.6c1.71,0,2.89-.77,2.89-2.24v0c0-1.24-1-2-2.78-2h-3.83V198Zm.5,5.7c1.91,0,3.09-.84,3.09-2.24v0c0-1.37-1.15-2.16-3.34-2.16h-4v4.44Z"/><path class="cls-2" d="M127,192.26h1.33L134,204.93h-1.53L131,201.6h-6.85l-1.49,3.33h-1.46Zm3.5,8.07-2.86-6.42-2.87,6.42Z"/><path class="cls-2" d="M145.84,192.35h1.33l7.92,10.08V192.35h1.39v12.58h-1.14l-8.12-10.32v10.32h-1.38Z"/><path class="cls-2" d="M168.82,198.67v0a6.34,6.34,0,0,1,6.37-6.51,6.51,6.51,0,0,1,4.9,2l-1,1a5.44,5.44,0,0,0-4-1.73,4.93,4.93,0,0,0-4.87,5.16v0a5,5,0,0,0,4.87,5.19,5.46,5.46,0,0,0,4.06-1.81l.94.91a6.57,6.57,0,0,1-5,2.21A6.27,6.27,0,0,1,168.82,198.67Z"/><path class="cls-2" d="M191.08,198.67v0a6.42,6.42,0,1,1,12.83,0v0a6.42,6.42,0,1,1-12.83,0Zm11.36,0v0a5,5,0,0,0-5-5.2,4.94,4.94,0,0,0-4.92,5.16v0a5,5,0,0,0,5,5.19A4.94,4.94,0,0,0,202.44,198.67Z"/><path class="cls-3" d="M218.81,198.27c6.73-3.44,13.47-6.85,20.17-10.33.07,10.14,0,20.25,0,30.37,8.43.05,16.86,0,25.28,0,0,6.21,0,12.41,0,18.61q-12.63,0-25.26,0c.05,9.31-.05,18.62,0,27.93,0,3.32,1.29,7.18,4.77,8.43,7.06,3.05,14.8.25,21.22-3,2.56,5.55,5.48,10.95,7.79,16.63-11.4,5.88-25.14,8.61-37.6,4.51-10.94-3.41-16.44-14.9-16.37-25.42Q218.77,232.13,218.81,198.27Z"/><path class="cls-4" d="M294.33,218.2c11.91-2.73,25.92-2.47,36,5.05,9.15,7,11.7,19.1,11.77,29.89-11.25,5.44-22.68,10.48-33.83,16.12-3.22-5.26-5.94-10.8-8.89-16.2,7.17-3.56,14.47-6.9,21.46-10.79.27-3.77-3.84-5.88-7.08-6.64-6.65-1.43-15.49-.36-18.68,6.35A33.72,33.72,0,0,0,294,263.71c1.62,5.93,7.4,10.09,13.62,10.43,9.23.64,18.48-.87,27.46-2.82,2,5.83,3.76,11.74,6,17.51A107.13,107.13,0,0,1,305,292.65c-10-.65-20.57-4.42-26.42-12.77-7.41-10.45-7.24-23.93-5.82-36C274.3,232.27,282.24,221.07,294.33,218.2Z"/><path class="cls-5" d="M352.78,220.31c15.35-4,31.77-5,47.35-1.62v.18q-3,9-6.06,17.92c-6.86-2-14.09-1.85-21.14-1.08q0,27.77,0,55.49H352.77Q352.82,255.75,352.78,220.31Z"/><path class="cls-6" d="M99.87,218.35c6.77,0,13.54,0,20.31,0q0,36.43,0,72.86-10.16,0-20.32,0Z"/><path class="cls-7" d="M138.57,291.19q10.23.07,20.46,0,0-27.7,0-55.41c6.5-.46,13.34-1.5,19.64.66a10.26,10.26,0,0,1,6.8,10c.09,14.93,0,29.86,0,44.79,6.72,0,13.43,0,20.14,0-.06-14.06,0-28.13,0-42.19.08-7.67-1.83-15.64-6.83-21.72-5.63-7-14.87-10.31-23.78-10.57a155.46,155.46,0,0,0-36.41,3.45Z"/></g></g></svg>