<?xml version="1.0" encoding="UTF-8"?>
<svg width="85px" height="24px" viewBox="0 0 104 29" version="1.1" xmlns="http://www.w3.org/2000/svg" xmlns:xlink="http://www.w3.org/1999/xlink">
    <!-- Generator: sketchtool 60 (101010) - https://sketch.com -->
    <title>4F54C7B1-F444-4094-BD04-C9524A1A6221@1.00x</title>
    <desc>Created with sketchtool.</desc>
    <g id="#10" stroke="none" stroke-width="1" fill="none" fill-rule="evenodd">
        <g id="#10_1_(1136)" transform="translate(-153.000000, -40.000000)">
            <g id="logo_color" transform="translate(153.000000, 40.000000)">
                <path d="M82.6463125,7.64140385 C89.0395337,7.64140385 93.5413365,12.0295048 93.5413365,18.044601 C93.5413365,24.0218846 88.9263606,28.485875 82.6463125,28.485875 C76.3284519,28.485875 71.8649904,24.0972452 71.8649904,18.1199615 C71.8649904,12.1056587 76.5180433,7.64140385 82.6463125,7.64140385" id="Path" fill="#000000"></path>
                <path d="M82.4735096,13.5663846 C85.1264663,13.5663846 86.994351,15.4599183 86.994351,18.0554952 C86.994351,20.6344135 85.0791346,22.561 82.4735096,22.561 C79.8520192,22.561 78,20.6672019 78,18.0880192 C78,15.4927067 79.9305529,13.5663846 82.4735096,13.5663846" id="Path" fill="#FEFEFE"></path>
                <path d="M10.9941827,7.18151923 C17.3874038,7.18151923 21.8894712,11.5696202 21.8894712,17.5847163 C21.8894712,23.465332 17.4219089,27.8815886 11.2967443,28.0225187 L10.9941827,28.0259904 L10.9941827,28.0259904 C4.67632212,28.0259904 0.213125,23.6373606 0.213125,17.6600769 C0.213125,11.6455096 4.86591346,7.18151923 10.9941827,7.18151923 Z" id="Fill-5" fill="#000000"></path>
                <path d="M11.0275,13.1065 C13.6804567,13.1065 15.5483413,14.9997692 15.5483413,17.5956106 C15.5483413,20.1008455 13.741252,21.9904922 11.2491413,22.0964269 L11.0275,22.1011154 L11.0275,22.1011154 C8.40600962,22.1011154 6.55399038,20.2073173 6.55399038,17.6281346 C6.55399038,15.0328221 8.48454327,13.1065 11.0275,13.1065 Z" id="Fill-7" fill="#FEFEFE"></path>
                <polygon id="Fill-9" fill="#FEFEFE" points="45.8255769 27.9939423 52.1434375 27.9939423 52.1434375 0.6428125 45.8255769 0.6428125"></polygon>
                <polygon id="Fill-11" fill="#EE3F26" points="72.2473245 8.13307212 65.6795841 8.13307212 60.0434062 27.9941538 65.5513389 27.9941538"></polygon>
                <path d="M29.6312188,15.7780986 L35.8753053,15.7780986 C35.8015313,14.2357188 34.6631899,12.9133389 32.753262,12.9133389 C30.7330697,12.9133389 29.778238,14.4189639 29.6312188,15.7780986 L29.6312188,15.7780986 Z M29.4474447,19.6717284 C29.5944639,21.3976178 31.2473726,22.8670168 33.5245841,22.8670168 C35.8385505,22.8670168 37.1974207,21.360863 37.5647043,20.8100697 L41.6050889,23.932113 C41.0540313,25.0709832 38.4095361,28.1924976 33.4143197,28.1924976 C27.0602332,28.1924976 23.1668678,23.8218486 23.1668678,18.1288197 C23.1668678,12.4725457 26.9867236,7.9548774 32.6429976,7.9548774 C38.7768197,7.9548774 42.1191274,11.8849976 42.1191274,18.459613 C42.1191274,18.8266322 42.1191274,19.2309351 42.0823726,19.6717284 L29.4474447,19.6717284 Z" id="Fill-12" fill="#000000"></path>
                <polygon id="Fill-13" fill="#377EF0" points="43.8255769 27.6152885 50.1434375 27.6152885 50.1434375 0.264158654 43.8255769 0.264158654"></polygon>
                <polyline id="Fill-14" fill="#000000" points="60.0434591 27.9942332 58.2125938 27.9942332 51.4026418 8.13315144 58.1747813 8.13315144 61.9198053 21.298512"></polyline>
                <polygon id="Fill-15" fill="#000000" points="0 28.0164183 6.27264423 28.0164183 6.27264423 0.665288462 0 0.665288462"></polygon>
                <path d="M99.3949135,19.4913918 C102.04787,19.4913918 103.915755,21.3849255 103.915755,23.9805024 C103.915755,26.5596851 102.000538,28.4860072 99.3949135,28.4860072 C96.7734231,28.4860072 94.9214038,26.5922091 94.9214038,24.0130264 C94.9214038,21.4177139 96.8519567,19.4913918 99.3949135,19.4913918" id="Path" fill="#F7C910"></path>
            </g>
        </g>
    </g>
</svg>
