<svg width="1024" height="1024" viewBox="0 0 1024 1024" fill="none" xmlns="http://www.w3.org/2000/svg">
<path d="M187 563.699H728.179C771.711 563.699 807 598.988 807 642.52V642.52C807 686.051 771.711 721.341 728.179 721.341H276.5C227.071 721.341 187 681.27 187 631.841V563.699Z" fill="#284D63"/>
<path d="M187 362.463C187 317.472 223.472 281 268.463 281V281C313.454 281 349.926 317.472 349.926 362.463V563.699H187V362.463Z" fill="#15803D"/>
<path d="M415.978 385.36C415.978 340.37 452.45 303.897 497.441 303.897V303.897C542.432 303.897 578.904 340.37 578.904 385.361V563.699H415.978V385.36Z" fill="#0369A1"/>
</svg>
