<svg xmlns="http://www.w3.org/2000/svg" viewBox="0 0 500 500"><defs><style>.cls-1{fill:none;}.cls-2{fill:#33348e;}.cls-2,.cls-3{fill-rule:evenodd;}.cls-3{fill:#fff22d;}</style></defs><g id="Camada_2" data-name="Camada 2"><g id="fundo"><rect class="cls-1" width="500" height="500" rx="250"/></g><g id="logos"><path class="cls-2" d="M155.9,101.94l187.57.11a53.84,53.84,0,0,1,53.59,53.81V343.43a53.93,53.93,0,0,1-53.81,53.7L155.57,397a54,54,0,0,1-53.7-53.81l.22-187.57a53.79,53.79,0,0,1,53.81-53.7Z"/><path class="cls-3" d="M355.49,236.58H334.1l-8.82,16.76h15l15.22-16.76Zm14.22,27.23H348.87v45c0,13.79-9.26,17.76-16.09,17.76-6.51,0-13.68-2.43-13.57-14.45v-48.3H298.37l-.11,51.28c0,19.84,11.36,28.66,27,28.66,10.91.11,19.41-4.63,24.15-13h.22v10.92h20.07V263.81Zm-87.66,20.62c0-19.29-20.29-22.71-31.54-22.71-16.21,0-33.08,3.42-35.61,27.23h20.18c.66-4.52,2.53-10.8,12.9-10.8,5.4,0,13.78.44,13.78,9,0,4.41-4.08,5.73-7.39,6.17l-18.74,2.76c-13.34,1.88-23.27,9.7-23.27,24.92,0,16.1,12.35,22.72,24.15,22.72,14.34,0,21.06-6.51,25.69-11.25a33.38,33.38,0,0,0,2,9.15l18-.11c0-8.6-.11-14.88-.11-15V284.43Zm-88.88-47.85H172.33V263.7h-10.8v14.67h10.69v47.3c0,10,3.2,16.87,21.28,16.87h2.76c3.31,0,6.62-.22,9.82-.33V326.66c-1.44.11-3,.33-4.3.33-8.5,0-8.72-1.76-8.72-6.39l.11-42.23h13V263.7h-13V236.58Zm-41.24-.12H129.44l-.11,105.09h22.49Z"/><path class="cls-2" d="M261.76,313.76v-10c-2.09,1.65-5.62,3-14.22,4.19-7.83,1.32-14.23,3.31-14.23,11.8,0,7,5.74,9.37,9.7,9.37,9.27,0,18.75-5.84,18.75-15.33Z"/></g></g></svg>