<?xml version="1.0" encoding="UTF-8" standalone="no"?>
<!DOCTYPE svg PUBLIC "-//W3C//DTD SVG 1.1//EN" "http://www.w3.org/Graphics/SVG/1.1/DTD/svg11.dtd">
<svg xmlns="http://www.w3.org/2000/svg" version="1.1" viewBox="0.00 0.00 1628.00 404.00">
<g stroke-width="2.00" fill="none" stroke-linecap="butt">
<path stroke="#a08689" vector-effect="non-scaling-stroke" d="
  M 116.82 241.88
  Q 138.46 235.82 151.08 217.58"
/>
<path stroke="#a08689" vector-effect="non-scaling-stroke" d="
  M 150.97 151.13
  Q 151.07 150.84 150.68 150.30
  Q 137.77 132.40 116.80 126.59"
/>
</g>
<rect fill="#ef294b" x="668.25" y="0.25" width="48.50" height="279.74" rx="0.41"/>
<path fill="#ef294b" d="
  M 1140.25 250.32
  C 1160.83 260.82 1175.20 276.57 1178.84 299.48
  C 1181.61 316.93 1179.86 336.15 1172.46 352.34
  C 1158.65 382.54 1129.31 398.69 1096.70 402.34
  C 1058.60 406.60 1015.84 395.42 994.02 361.29
  Q 981.23 341.29 981.01 315.54
  A 0.54 0.53 90.0 0 1 981.54 315.00
  L 1029.03 315.00
  Q 1029.64 315.00 1029.66 315.61
  Q 1030.22 335.30 1046.92 347.20
  Q 1061.86 357.84 1083.66 357.29
  C 1109.88 356.62 1132.50 341.02 1130.92 312.38
  Q 1130.38 302.56 1124.71 294.53
  C 1116.35 282.70 1100.89 276.74 1086.75 275.89
  Q 1082.13 275.61 1076.99 275.50
  C 1042.37 274.78 1010.63 260.79 993.56 230.00
  C 985.85 216.09 982.19 200.27 981.21 184.12
  Q 980.04 164.93 984.82 146.79
  C 994.98 108.30 1026.54 82.37 1065.57 77.26
  Q 1085.81 74.61 1104.67 78.34
  Q 1115.78 80.54 1125.88 87.02
  Q 1126.31 87.29 1126.62 86.89
  L 1145.52 62.99
  Q 1145.91 62.50 1146.40 62.88
  L 1181.85 89.67
  A 0.37 0.36 -53.1 0 1 1181.92 90.19
  L 1160.49 117.46
  Q 1160.12 117.93 1160.52 118.38
  Q 1178.82 139.15 1180.64 169.15
  Q 1182.07 192.64 1173.64 213.47
  Q 1163.71 238.00 1140.26 249.57
  Q 1139.51 249.94 1140.25 250.32
  Z
  M 1065.52 123.13
  C 1037.29 131.75 1026.02 160.99 1030.67 188.17
  C 1034.31 209.46 1048.88 225.66 1070.30 229.91
  C 1096.73 235.15 1122.01 220.95 1129.61 194.86
  C 1134.50 178.09 1132.76 157.52 1122.78 142.95
  Q 1109.23 123.17 1085.24 121.04
  Q 1075.28 120.15 1065.52 123.13
  Z"
/>
<path fill="#ef294b" d="
  M 1357.04 250.33
  C 1377.52 260.57 1391.89 276.61 1395.57 299.27
  Q 1398.12 314.95 1395.61 330.69
  C 1389.10 371.66 1356.91 396.27 1317.24 401.88
  C 1259.30 410.06 1198.79 381.14 1197.79 315.52
  Q 1197.78 315.00 1198.30 315.00
  L 1245.95 315.00
  Q 1246.45 315.00 1246.46 315.50
  C 1246.83 340.24 1268.72 354.98 1291.20 357.01
  Q 1306.29 358.38 1319.24 354.01
  C 1337.27 347.93 1348.46 332.91 1347.79 313.60
  C 1346.96 289.95 1325.34 277.39 1304.21 275.94
  Q 1300.13 275.67 1289.56 275.35
  Q 1280.96 275.09 1269.96 272.73
  C 1238.05 265.89 1213.09 244.98 1203.32 213.73
  Q 1195.81 189.71 1198.52 163.16
  C 1201.89 130.07 1220.12 102.51 1249.36 87.41
  C 1269.29 77.13 1292.66 74.38 1315.32 77.28
  Q 1330.36 79.21 1342.67 87.01
  Q 1343.11 87.29 1343.43 86.89
  L 1362.48 62.77
  Q 1362.69 62.50 1362.98 62.71
  L 1398.48 89.54
  A 0.58 0.57 -52.3 0 1 1398.58 90.35
  L 1377.25 117.48
  Q 1376.92 117.91 1377.28 118.32
  Q 1394.24 137.68 1397.03 164.35
  C 1400.59 198.33 1388.88 233.97 1357.05 249.60
  Q 1356.31 249.96 1357.04 250.33
  Z
  M 1348.22 165.91
  C 1343.80 136.77 1319.29 116.68 1289.47 121.52
  C 1269.08 124.83 1253.80 139.11 1248.68 158.93
  C 1241.21 187.83 1252.23 220.64 1283.51 229.06
  C 1302.90 234.28 1323.19 228.92 1336.31 213.68
  C 1347.42 200.77 1350.76 182.60 1348.22 165.91
  Z"
/>
<path fill="#ef294b" d="
  M 476.00 273.31
  L 476.00 402.75
  Q 476.00 403.25 475.50 403.25
  L 427.80 403.25
  Q 427.26 403.25 427.26 402.71
  Q 427.24 289.85 427.25 181.06
  C 427.25 125.45 465.04 81.65 521.80 78.44
  Q 538.58 77.49 551.29 79.32
  C 620.81 89.31 650.81 158.63 630.01 221.27
  C 619.06 254.24 592.36 276.51 558.36 282.92
  C 546.98 285.06 536.07 284.97 524.07 284.75
  Q 497.86 284.27 476.57 272.97
  Q 476.00 272.67 476.00 273.31
  Z
  M 573.94 218.66
  C 588.41 202.27 590.90 177.92 582.96 158.18
  C 575.75 140.29 559.93 128.86 540.67 126.27
  C 521.24 123.66 501.68 129.39 489.09 144.32
  C 478.04 157.42 474.19 176.03 477.33 192.53
  C 482.62 220.35 506.61 238.94 535.00 237.25
  Q 558.77 235.84 573.94 218.66
  Z"
/>
<path fill="#ef294b" d="
  M 904.41 254.44
  C 889.72 268.76 873.53 279.21 853.08 282.18
  C 827.28 285.92 801.78 279.90 783.16 261.43
  C 767.28 245.68 759.28 223.00 757.29 200.99
  Q 756.60 193.32 756.58 183.25
  Q 756.49 133.32 756.51 83.01
  Q 756.51 82.49 757.02 82.49
  L 805.19 82.50
  A 0.59 0.59 0.0 0 1 805.78 83.09
  Q 805.69 139.16 805.81 190.18
  Q 805.83 200.69 811.07 212.44
  Q 820.11 232.73 840.99 237.30
  C 876.89 245.14 903.44 217.55 903.48 182.98
  Q 903.52 134.12 903.50 82.96
  A 0.46 0.45 90.0 0 1 903.95 82.50
  L 951.75 82.50
  Q 952.00 82.50 952.00 82.75
  L 952.00 280.25
  A 0.25 0.25 0.0 0 1 951.75 280.50
  L 908.67 280.50
  A 0.51 0.50 86.8 0 1 908.17 280.05
  L 905.15 254.70
  Q 905.05 253.81 904.41 254.44
  Z"
/>
<path fill="#ef294b" d="
  M 1517.01 222.48
  Q 1517.17 222.93 1517.33 222.49
  Q 1525.53 200.71 1534.12 177.81
  Q 1537.66 168.39 1541.47 159.24
  Q 1558.02 119.58 1573.33 82.81
  A 0.51 0.51 0.0 0 1 1573.80 82.50
  L 1627.25 82.50
  A 0.34 0.33 11.9 0 1 1627.56 82.97
  L 1507.40 362.03
  A 0.79 0.79 0.0 0 1 1506.68 362.50
  L 1453.92 362.50
  A 0.42 0.42 0.0 0 1 1453.53 361.91
  L 1489.89 277.36
  A 1.70 1.68 45.7 0 0 1489.90 276.05
  L 1411.48 82.97
  A 0.34 0.34 0.0 0 1 1411.79 82.50
  L 1467.75 82.50
  Q 1468.34 82.50 1468.55 83.06
  Q 1493.60 153.21 1517.01 222.48
  Z"
/>
<path fill="#ef294b" d="
  M 150.49 273.29
  C 114.44 292.49 72.35 289.25 39.93 264.65
  C 12.21 243.62 -2.94 208.38 0.89 173.77
  Q 4.83 138.18 29.82 112.76
  C 46.59 95.70 69.11 85.26 92.81 83.17
  Q 123.14 80.50 150.75 95.29
  Q 151.07 95.46 151.38 95.29
  C 214.87 61.03 291.97 100.42 301.18 171.96
  Q 302.41 181.53 301.58 191.73
  Q 298.67 227.44 275.04 253.03
  C 243.39 287.31 192.85 295.47 151.66 273.29
  Q 151.07 272.97 150.49 273.29
  Z
  M 116.82 241.88
  Q 138.46 235.82 151.08 217.58
  C 164.79 197.39 164.57 171.87 151.57 151.48
  Q 151.41 151.22 150.97 151.13
  Q 151.07 150.84 150.68 150.30
  Q 137.77 132.40 116.80 126.59
  Q 103.48 123.21 91.12 125.61
  C 59.72 131.69 37.87 161.21 42.97 193.29
  C 46.31 214.33 60.36 231.96 80.35 239.77
  Q 97.68 246.54 116.82 241.88
  Z
  M 185.61 127.08
  C 209.00 161.32 209.31 207.12 185.57 241.42
  A 0.31 0.30 -65.2 0 0 185.74 241.89
  C 210.97 248.52 237.06 237.50 250.68 216.01
  C 269.03 187.09 259.32 148.23 228.56 131.80
  Q 208.53 121.10 185.83 126.49
  Q 185.29 126.62 185.61 127.08
  Z"
/>
<path fill="#50e2c6" d="
  M 116.80 126.59
  Q 137.77 132.40 150.68 150.30
  Q 151.07 150.84 150.97 151.13
  C 137.41 171.29 137.64 197.40 151.08 217.58
  Q 138.46 235.82 116.82 241.88
  C 92.87 206.71 93.17 161.77 116.80 126.59
  Z"
/>
</svg>
